<?xml version="1.0" standalone="no"?>
<!DOCTYPE svg PUBLIC "-//W3C//DTD SVG 20010904//EN"
 "http://www.w3.org/TR/2001/REC-SVG-20010904/DTD/svg10.dtd">
<svg version="1.0" xmlns="http://www.w3.org/2000/svg"
 width="512.000000pt" height="512.000000pt" viewBox="0 0 512.000000 512.000000"
 preserveAspectRatio="xMidYMid meet">
<metadata>
Created by potrace 1.14, written by Peter Selinger 2001-2017
</metadata>
<g transform="translate(0.000000,512.000000) scale(0.100000,-0.100000)"
fill="#000000" stroke="none">
<path d="M3060 4444 c-371 -107 -691 -198 -710 -203 -92 -24 -570 -163 -607
-177 -84 -31 -77 60 -79 -1089 -1 -837 -4 -1028 -16 -1062 -34 -103 -117 -177
-238 -212 -503 -146 -519 -152 -603 -236 -53 -54 -111 -162 -123 -230 -35
-207 66 -403 255 -492 63 -30 89 -37 162 -41 81 -4 97 -1 255 43 225 64 281
91 369 179 75 77 112 136 140 231 17 56 19 125 20 1031 1 533 5 976 9 982 4 7
13 12 20 12 13 0 238 62 396 109 168 51 1331 381 1339 381 12 0 4 -1132 -8
-1177 -18 -64 -70 -134 -131 -174 -42 -27 -102 -49 -260 -94 -350 -98 -390
-115 -471 -202 -172 -181 -162 -467 21 -636 31 -29 77 -62 103 -75 61 -30 169
-52 234 -47 70 5 395 99 458 133 67 36 184 155 217 222 65 131 61 34 62 1563
l0 1387 -30 31 c-21 21 -43 32 -70 34 -29 3 -214 -46 -714 -191z m595 -299
c-1 -129 -3 -236 -6 -239 -4 -5 -262 -81 -369 -110 -30 -8 -93 -25 -140 -39
-47 -13 -94 -27 -105 -30 -11 -3 -264 -75 -562 -161 -298 -85 -552 -158 -565
-161 l-23 -6 0 240 0 239 285 82 c157 45 292 83 300 85 8 2 272 78 585 168
314 91 577 165 585 166 13 1 15 -31 15 -234z m-2 -2173 c-2 -146 -4 -174 -23
-217 -52 -122 -113 -163 -330 -225 -183 -52 -237 -55 -304 -16 -74 44 -109 98
-119 186 -8 74 39 167 106 209 18 11 145 52 282 92 138 39 279 86 315 104 36
18 67 33 70 34 3 1 4 -74 3 -167z m-1988 -571 l-1 -169 -33 -66 c-32 -66 -83
-117 -146 -148 -16 -8 -97 -34 -178 -58 -161 -46 -221 -49 -285 -16 -134 69
-164 255 -59 364 44 46 60 52 334 131 133 38 268 83 300 99 32 17 60 30 63 31
3 1 5 -75 5 -168z"/>
</g>
</svg>
